<?xml version="1.0" encoding="UTF-8"?>
<!-- Generator: Adobe Illustrator 23.0.3, SVG Export Plug-In . SVG Version: 6.00 Build 0) -->
<svg xmlns="http://www.w3.org/2000/svg" xmlns:xlink="http://www.w3.org/1999/xlink" id="Logo" x="0px" y="0px" viewBox="0 0 653.19 163.45" style="enable-background:new 0 0 653.19 163.45;" xml:space="preserve"> <style type="text/css"> .st0{fill:#FF198F;} </style> <g> <g id="Logo_1_"> <path class="st0" d="M144.11,109.19c-9.96,0-17.86-7.9-17.86-18.1c0-10.08,7.9-17.86,17.86-17.86c10.08,0,17.98,7.78,17.98,17.98 C162.09,101.42,154.19,109.19,144.11,109.19 M177.16,72.5V60.11h-21.87c-3.52-1.21-7.29-1.94-11.18-1.94 c-18.83,0-33.65,14.34-33.65,33.05c0,18.71,14.82,33.05,33.65,33.05c18.83,0,33.65-14.34,33.65-33.05c0-6.32-1.7-12.51-5.1-17.13 L177.16,72.5z M71.46,109.19c-9.96,0-17.86-7.9-17.86-18.1c0-10.08,7.9-17.86,17.86-17.86c10.08,0,17.98,7.78,17.98,17.98 C89.44,101.42,81.54,109.19,71.46,109.19 M71.46,58.16c-18.83,0-33.65,14.34-33.65,33.05c0,18.71,14.82,33.05,33.65,33.05 c18.83,0,33.65-14.34,33.65-33.05C105.11,72.5,90.29,58.16,71.46,58.16 M16.18,122.43h15.55V33.74H16.18V122.43z M183.96,122.43 h15.55V60.11h-15.55V122.43z M144.11,144.55c-9.96,0-17.86-7.77-17.86-17.86h-15.79c0,18.71,14.82,33.05,33.65,33.05 c18.83,0,33.65-14.34,33.65-33.05h-15.79C161.97,136.77,154.07,144.55,144.11,144.55 M256.74,84.77 c2.06-8.26,8.38-12.88,16.52-12.88c8.14,0,14.21,4.5,16.16,12.88H256.74z M273.62,58.16c-18.71,0-32.93,14.34-32.93,33.41 c0,18.83,13,32.68,33.17,32.68c11.18,0,21.14-4.13,28.43-11.91l-10.45-10.33c-5.1,4.86-10.57,8.38-17.62,8.38 c-8.5,0-14.94-4.86-17.13-13h48.48v-3.77C305.58,72.38,292.46,58.16,273.62,58.16 M411.28,58.16c-7.65,0-14.21,2.92-18.83,7.9 V33.74H376.9v88.69h15.55v-33.9c0-8.99,5.71-15.19,15.19-15.19c8.87,0,13.73,5.47,13.73,15.19v33.9h15.55V85.74 C436.91,68.49,426.1,58.16,411.28,58.16 M344.21,73.23c6.56,0,11.91,3.4,16.04,8.14l10.81-10.69 c-6.07-7.65-15.67-12.51-26.61-12.51c-18.83,0-33.65,14.34-33.65,33.05c0,18.71,14.82,33.05,33.65,33.05 c10.93,0,20.53-4.86,26.61-12.51l-10.81-10.69c-4.01,4.62-9.48,8.14-16.16,8.14c-9.96,0-17.62-7.78-17.62-17.98 C326.48,81,334.13,73.23,344.21,73.23 M230.13,40.91h-15.55v19.2h-8.38v13.85h8.38v48.48h15.55V73.96h8.5V60.11h-8.5V40.91z M191.62,32.04c-5.71,0-10.21,4.5-10.21,10.33c0,5.71,4.5,10.21,10.21,10.21c5.95,0,10.45-4.5,10.45-10.21 C202.06,36.54,197.57,32.04,191.62,32.04 M555.11,3.72v31.46c-24.81,0-44.47,19.91-44.47,44.33c0,24.43,19.65,44.34,44.47,44.34 v31.46c-42.08,0-76.32-33.98-76.32-75.79C478.79,37.7,513.04,3.72,555.11,3.72z M556.19,65.89v31.29h36.68v36.68h31.29V65.89 H556.19z"></path> </g> <g> <g> <polygon class="st0" points="624.16,141.77 633.45,141.77 633.45,143.6 629.77,143.6 629.77,155.3 627.84,155.3 627.84,143.6 624.16,143.6 "></polygon> </g> <g> <polygon class="st0" points="642.73,152.4 641.38,152.4 637.41,146.19 637.41,155.3 635.48,155.3 635.48,141.77 636.83,141.77 642.05,150.02 647.28,141.77 648.63,141.77 648.63,155.3 646.69,155.3 646.69,146.19 "></polygon> </g> </g> </g> </svg> 