<?xml version="1.0" encoding="utf-8"?>
<!-- Generator: Adobe Illustrator 24.0.2, SVG Export Plug-In . SVG Version: 6.00 Build 0)  -->
<svg version="1.1" id="Layer_1" xmlns="http://www.w3.org/2000/svg" xmlns:xlink="http://www.w3.org/1999/xlink" x="0px" y="0px"
	 viewBox="0 0 270 140" style="enable-background:new 0 0 270 140;" xml:space="preserve">
<style type="text/css">
	.st0{fill:#FF198F;}
</style>
<g>
	<g id="Layer_1-2_2_">
		<path class="st0" d="M213.49,51.89h-7.55V41.32h-16.57l-7.62,10.57h-13.54l-4.53,4.53v-4.53h-10.57V41.32H119.9v10.57H73.19
			l-7.62-10.57h-16.6v36.23l21.13,21.13h21.13v-6.04l6.04,6.04h40.76v-6.04l6.04,6.04h19.62v-6.04l6.04,6.04h37.74l13.59-13.59
			V59.43L213.49,51.89z M74.62,66.98H64.05V70h10.57v12.08h-16.6l-6.04-6.04v-31.7h12.08V54.9h10.57V66.98z M119.9,82.08H83.68
			l-6.04-6.04V54.9h12.08V70h3.02V54.9h12.08V70h3.02V54.9h12.08V82.08z M135,82.08h-12.08V54.9H135V82.08z M135,51.89h-12.08v-7.55
			H135V51.89z M160.66,66.98H150.1V70h10.57v12.08h-16.6l-6.04-6.04v-31.7h12.08V54.9h10.57V66.98z M187.83,66.98h-12.08V70h12.08
			v12.08h-18.11l-6.04-6.04v-15.1l6.04-6.04h18.11V66.98z M218.02,82.08h-12.08v-15.1h-3.02v15.1h-12.08V44.34h12.08V54.9h9.06
			l6.04,6.04V82.08z"/>
	</g>
</g>
</svg>
