<?xml version="1.0" encoding="utf-8"?>
<!-- Generator: Adobe Illustrator 24.0.2, SVG Export Plug-In . SVG Version: 6.00 Build 0)  -->
<svg version="1.1" id="Layer_1" xmlns="http://www.w3.org/2000/svg" xmlns:xlink="http://www.w3.org/1999/xlink" x="0px" y="0px"
	 viewBox="0 0 270 140" style="enable-background:new 0 0 270 140;" xml:space="preserve">
<style type="text/css">
	.st0{fill-rule:evenodd;clip-rule:evenodd;fill:#FF198F;}
</style>
<g>
	<path class="st0" d="M85.87,89.32H75.6l-3.14-7.58H55.32l-2.86,7.58H42.35l15.44-38.3h11.06L85.87,89.32L85.87,89.32L85.87,89.32z
		 M63.47,60.18l-5.62,14.88h11.79L63.47,60.18L63.47,60.18z"/>
	<polygon class="st0" points="123.2,51.03 131.51,51.03 131.51,89.32 121.97,89.32 121.97,65.4 111.63,77.42 110.17,77.42 
		99.84,65.4 99.84,89.32 90.3,89.32 90.3,51.03 98.61,51.03 110.9,65.23 123.2,51.03 	"/>
	<path class="st0" d="M155.7,51.03c13.98,0,21.17,8.7,21.17,19.21c0,11.01-6.96,19.09-22.24,19.09H138.8v-38.3H155.7L155.7,51.03
		L155.7,51.03z M148.35,82.3h6.23c9.6,0,12.47-6.51,12.47-12.13c0-6.57-3.54-12.13-12.58-12.13h-6.12V82.3L148.35,82.3z"/>
	<polygon class="st0" points="215.45,59.97 195.83,59.97 183.9,47.99 227.65,47.93 227.65,91.74 215.45,79.48 215.45,59.97 	"/>
	<polygon class="st0" points="195.83,79.87 195.88,62.17 183.46,74.59 183.46,92.07 201.43,92.07 213.64,79.87 195.83,79.87 	"/>
</g>
</svg>
